<?xml version="1.0" encoding="utf-8"?>
<!-- Generator: Adobe Illustrator 27.2.0, SVG Export Plug-In . SVG Version: 6.00 Build 0)  -->
<svg version="1.1" id="Layer_1" xmlns="http://www.w3.org/2000/svg" xmlns:xlink="http://www.w3.org/1999/xlink" x="0px" y="0px"
	 viewBox="0 0 300 600" style="enable-background:new 0 0 300 600;" xml:space="preserve">
<style type="text/css">
	.st0{fill:#FFFFFF;}
</style>
<g>
	<g>
		<path class="st0" d="M123.6,522.3h-4.4c-1.4,0-2.1-0.7-2.1-2.1v-1.2h0.5v1.2c0,1.1,0.5,1.6,1.5,1.6h2.1c0.5,0,0.7-0.2,0.7-1v-3.1
			h0.5v3.4c0,0.3,0,0.6-0.1,0.8h1.3V522.3z M120.6,519l-0.4,0c0-0.2-0.1-0.3-0.3-0.3c-0.2,0-0.4,0.2-0.4,0.5c0,0.1,0,0.2,0.1,0.3
			h0.9v0.3h-1.7v-0.3h0.3c0-0.1-0.1-0.2-0.1-0.3c0-0.5,0.3-0.8,0.7-0.8C120.3,518.4,120.5,518.6,120.6,519z"/>
		<path class="st0" d="M125.9,522.3h-2.5v-0.5h0.5c0.3,0,0.5-0.1,0.6-0.3c0.1-0.1,0.1-0.4,0.1-0.7v-3.1h0.5v3.4c0,0.3,0,0.6-0.1,0.8
			h0.9V522.3z"/>
		<path class="st0" d="M131.3,522.3h-5.5v-0.5h1.2c-0.2-0.3-0.3-0.6-0.3-1c0-0.8,0.5-1.4,1.3-1.4c0.8,0,1.3,0.6,1.3,1.4
			c0,0.4-0.1,0.7-0.3,1h1c0-0.2,0.1-0.4,0.1-0.6c0-1.2-0.8-2.1-1.7-2.3v-0.5c0.6,0.1,1.3,0.6,1.7,1.1c0.3,0.5,0.5,1.1,0.5,1.8
			c0,0.2,0,0.3,0,0.5h0.8V522.3z M128.7,520.8c0-0.6-0.3-0.9-0.7-0.9c-0.5,0-0.8,0.4-0.8,1c0,0.6,0.3,1,0.8,1
			C128.5,521.8,128.7,521.5,128.7,520.8z"/>
		<path class="st0" d="M133.5,522.3H131v-0.5h0.5c0.3,0,0.5-0.1,0.6-0.3c0.1-0.1,0.1-0.4,0.1-0.7v-1.8h0.5v2c0,0.3,0,0.6-0.1,0.8
			h0.9V522.3z M131.7,518.5h-0.5v-0.6h0.5V518.5z M132.7,518.5h-0.5v-0.6h0.5V518.5z"/>
		<path class="st0" d="M140.1,522.3h-6.8v-0.5h0.7c0.5,0,0.8-0.3,0.8-0.9v-1.8h0.5v2c0,0.3,0,0.5-0.1,0.7v0h0.9c0.5,0,0.6-0.2,0.6-1
			v-1.8h0.5v2c0,0.3,0,0.6-0.1,0.8h0.9c0.5,0,0.7-0.2,0.7-1v-1.8h0.5v2c0,0.3-0.1,0.6-0.1,0.8h1.2V522.3z"/>
		<path class="st0" d="M144.5,522.3h-1.1c-0.3,0.4-0.7,0.6-1.2,0.6c-0.6,0-1-0.2-1.2-0.6h-1.1v-0.5h0.8c0-0.1-0.1-0.3-0.1-0.5
			c0-0.5,0.1-0.9,0.4-1.2c0.3-0.3,0.6-0.5,1.1-0.5c0.5,0,0.8,0.2,1.1,0.5c0.2,0.3,0.4,0.7,0.4,1.2c0,0.2,0,0.3-0.1,0.5h0.9V522.3z
			 M143.1,521.3c0-0.3-0.1-0.6-0.2-0.8c-0.1-0.2-0.4-0.3-0.7-0.3c-0.3,0-0.6,0.1-0.7,0.4c-0.1,0.2-0.2,0.5-0.2,0.8
			c0,0.3,0.1,0.6,0.2,0.8c0.2,0.2,0.4,0.3,0.7,0.3C142.8,522.5,143.1,522.1,143.1,521.3z"/>
		<path class="st0" d="M146,517.7v3.4c0,0.8-0.3,1.3-1,1.3h-0.6v-0.5h0.5c0.3,0,0.5-0.1,0.6-0.3c0.1-0.1,0.1-0.4,0.1-0.7v-3.1H146z"
			/>
		<path class="st0" d="M147.5,522.3H147v-4.6h0.5V522.3z"/>
		<path class="st0" d="M155.4,522.3h-0.1c-0.7,0-1.2-0.4-1.3-1c0,1.2-1.1,2.1-2.3,2.1c-1.3,0-2.3-1.1-2.3-2.5v-0.7h0.5v0.6
			c0,1.3,0.7,2.1,1.8,2.1c1,0,1.8-0.8,1.8-1.7c0-0.6-0.3-1-0.9-1v-0.5h0c0,0,0.1,0,0.4,0c0.4,0,1,0.4,1.3,1c0.3,0.7,0.5,0.9,1,0.9
			h0.1V522.3z"/>
		<path class="st0" d="M156.9,517.7v3.4c0,0.8-0.3,1.3-1,1.3h-0.6v-0.5h0.5c0.3,0,0.5-0.1,0.6-0.3c0.1-0.1,0.1-0.4,0.1-0.7v-3.1
			H156.9z"/>
		<path class="st0" d="M158.8,523.1l-0.3,0c0-0.2-0.1-0.3-0.3-0.3c-0.2,0-0.3,0.1-0.3,0.4c0,0.1,0,0.2,0.1,0.3h0.8v0.3h-1.4v-0.3
			h0.3c0-0.1,0-0.2,0-0.3c0-0.2,0-0.3,0.1-0.4c0.1-0.1,0.3-0.2,0.5-0.2C158.5,522.6,158.7,522.8,158.8,523.1z M158.5,522.3H158v-4.6
			h0.5V522.3z"/>
		<path class="st0" d="M164.4,522.3h-0.3c-0.7,0-1.2-0.3-1.4-1c-0.2,0.4-0.6,0.5-1.1,0.5c-0.7,0-1.3-0.8-1.3-1.7
			c0-1,0.5-1.7,1.4-1.7h1.5v2.3c0,0.7,0.3,1.1,0.9,1.1h0.3V522.3z M162.7,520v-1.3h-0.9c-0.6,0-1,0.6-1,1.3c0,0.7,0.4,1.3,0.9,1.3
			C162.4,521.4,162.7,521,162.7,520z M161.9,517.9h-0.5v-0.6h0.5V517.9z M162.9,517.9h-0.5v-0.6h0.5V517.9z"/>
		<path class="st0" d="M169.8,522.3h-5.5v-0.5h1.2c-0.2-0.3-0.3-0.6-0.3-1c0-0.8,0.5-1.4,1.3-1.4c0.8,0,1.3,0.6,1.3,1.4
			c0,0.4-0.1,0.7-0.3,1h1c0-0.2,0.1-0.4,0.1-0.6c0-1.2-0.8-2.1-1.7-2.3v-0.5c0.6,0.1,1.3,0.6,1.7,1.1c0.3,0.5,0.5,1.1,0.5,1.8
			c0,0.2,0,0.3,0,0.5h0.8V522.3z M167.2,520.8c0-0.6-0.3-0.9-0.7-0.9c-0.5,0-0.8,0.4-0.8,1c0,0.6,0.3,1,0.8,1
			C167,521.8,167.2,521.5,167.2,520.8z"/>
		<path class="st0" d="M174.4,521.6v0.7h-5v-0.5h4.3c0-0.1,0-0.2,0-0.3c0-1.2-0.6-1.9-1.8-1.9c-0.6,0-1.1,0.2-1.3,0.7
			c-0.1-0.1-0.2-0.2-0.4-0.4c0.4-0.5,1-0.8,1.8-0.8C173.5,519.2,174.4,520.1,174.4,521.6z M172.4,523.4h-0.5v-0.6h0.5V523.4z"/>
		<path class="st0" d="M178.8,522.3h-1c-0.1,0.7-0.6,1.1-1.5,1.2V523h0.1c0.5,0,0.8-0.2,0.9-0.7h-0.8c-0.4,0-0.7-0.1-1-0.5
			s-0.4-0.7-0.4-1.2c0-0.5,0.1-0.8,0.4-1.2c0.3-0.3,0.6-0.5,1-0.5c0.8,0,1.3,0.5,1.3,1.4v1.3h0.9V522.3z M177.4,521.8v-1.5
			c0-0.2-0.1-0.4-0.2-0.5c-0.1-0.2-0.3-0.3-0.6-0.3c-0.3,0-0.5,0.1-0.7,0.4c-0.1,0.2-0.2,0.5-0.2,0.7c0,0.3,0.1,0.5,0.2,0.8
			c0.2,0.3,0.4,0.4,0.7,0.4L177.4,521.8z"/>
		<path class="st0" d="M182.7,521.3c0,0.5-0.1,0.8-0.4,1.1c-0.3,0.3-0.6,0.5-1.1,0.5c-0.6,0-1-0.2-1.2-0.6h-1.4v-0.5h1.2
			c0-0.1-0.1-0.3-0.1-0.5c0-0.5,0.1-0.9,0.4-1.2c0.3-0.3,0.6-0.5,1.1-0.5s0.8,0.2,1.1,0.5C182.6,520.4,182.7,520.8,182.7,521.3z
			 M182.1,521.3c0-0.3-0.1-0.6-0.2-0.8c-0.2-0.2-0.4-0.3-0.7-0.3c-0.3,0-0.6,0.1-0.7,0.4c-0.1,0.2-0.2,0.5-0.2,0.8
			c0,0.3,0.1,0.6,0.2,0.8c0.2,0.2,0.4,0.3,0.7,0.3C181.8,522.5,182.1,522.1,182.1,521.3z"/>
		<path class="st0" d="M55.1,529.6c0,1-0.6,1.6-1.5,1.6c-1,0-1.5-0.7-1.5-1.6c0-0.5,0.1-0.9,0.4-1.2h-1c-0.6,0-1,0.6-1,1.6v2.4h-0.5
			V530c0-1.3,0.5-2,1.5-2h2.1C54.6,528,55.1,528.6,55.1,529.6z M54.5,529.5c0-0.7-0.3-1.1-0.9-1.1c-0.6,0-0.9,0.5-0.9,1.2
			c0,0.7,0.3,1.1,0.9,1.1C54.2,530.7,54.5,530.3,54.5,529.5z"/>
		<path class="st0" d="M56.6,531.2h-0.5v-4.6h0.5V531.2z"/>
		<path class="st0" d="M61.5,531.2h-4.3v-0.5h2.6c0-0.6-0.1-1.1-0.3-1.5c-0.3-0.5-0.7-0.7-1.3-0.7H58V528c1.5,0,2.3,0.9,2.4,2.8h1.1
			V531.2z"/>
		<path class="st0" d="M67,531.2h-5.7v-0.5h4.3c0-0.1,0-0.2,0-0.3c0-1.2-0.6-1.9-1.8-1.9c-0.6,0-1.1,0.2-1.3,0.7
			c-0.1-0.1-0.2-0.2-0.4-0.4c0.4-0.5,1-0.8,1.8-0.8c1.4,0,2.4,0.9,2.4,2.4v0.2H67V531.2z M64.1,527.5h-0.5v-0.6h0.5V527.5z"/>
		<path class="st0" d="M69.3,531.2h-2.5v-0.5h0.5c0.3,0,0.5-0.1,0.6-0.3c0.1-0.1,0.1-0.4,0.1-0.7V528h0.5v2c0,0.3,0,0.6-0.1,0.8h0.9
			V531.2z M67.6,527.5h-0.5v-0.6h0.5V527.5z M68.5,527.5H68v-0.6h0.5V527.5z"/>
		<path class="st0" d="M74.9,528v2c0,0.8-0.3,1.3-1.1,1.3h-4.7v-0.5h0.7c0.5,0,0.7-0.3,0.8-0.9V528h0.5v2c0,0.3,0,0.5-0.1,0.7v0h0.9
			c0.5,0,0.6-0.2,0.6-1V528H73v2c0,0.3,0,0.6-0.1,0.8h0.9c0.5,0,0.7-0.2,0.7-1V528H74.9z"/>
		<path class="st0" d="M78.9,526.6v3.4c0,0.8-0.3,1.3-1.1,1.3h-2.1v-0.5h1.2l-0.9-3.6h0.5l0.9,3.6h0.2c0.3,0,0.5-0.1,0.6-0.3
			c0.1-0.1,0.1-0.4,0.1-0.7v-3.1H78.9z"/>
		<path class="st0" d="M80.3,531.2h-0.5v-4.6h0.5V531.2z"/>
		<path class="st0" d="M87.4,531.2H86c-0.3,0.7-1,1.2-1.8,1.2c-1.2,0-2-1-2-2.5v-0.7h0.5v0.6c0,1.2,0.6,2.1,1.5,2.1
			c0.9,0,1.5-0.8,1.5-2.1v-3.3h0.5v3.4c0,0.3,0,0.5-0.1,0.8h1.2V531.2z"/>
		<path class="st0" d="M89.6,531.2h-2.5v-0.5h0.5c0.3,0,0.5-0.1,0.6-0.3c0.1-0.1,0.1-0.4,0.1-0.7V528h0.5v2c0,0.3,0,0.6-0.1,0.8h0.9
			V531.2z M88.8,532.3h-0.5v-0.6h0.5V532.3z"/>
		<path class="st0" d="M93.5,529.6c0,0.9-0.6,1.6-1.5,1.6h-2.5v-0.5h1.4c-0.2-0.3-0.4-0.7-0.4-1.1c0-0.9,0.6-1.6,1.5-1.6
			C92.9,528,93.5,528.6,93.5,529.6z M92.9,529.6c0-0.7-0.3-1.2-0.9-1.2c-0.6,0-1,0.5-1,1.2c0,0.7,0.3,1.2,0.9,1.2
			C92.6,530.8,92.9,530.4,92.9,529.6z M91.8,527.5h-0.5v-0.6h0.5V527.5z M92.7,527.5h-0.5v-0.6h0.5V527.5z"/>
		<path class="st0" d="M98.3,529.6c0,0.5-0.1,0.9-0.4,1.2c-0.3,0.3-0.7,0.5-1.1,0.5c-0.5,0-0.8-0.2-1.1-0.5
			c-0.3-0.3-0.4-0.7-0.4-1.2c0-0.5,0.1-0.9,0.4-1.2c0.3-0.3,0.7-0.5,1.1-0.5c0.5,0,0.9,0.2,1.1,0.5
			C98.2,528.7,98.3,529.1,98.3,529.6z M97.8,529.5c0-0.3-0.1-0.6-0.2-0.8c-0.2-0.2-0.4-0.4-0.7-0.4c-0.3,0-0.6,0.1-0.8,0.4
			c-0.1,0.2-0.2,0.5-0.2,0.9c0,0.3,0.1,0.6,0.2,0.8c0.2,0.3,0.4,0.4,0.7,0.4C97.4,530.8,97.8,530.4,97.8,529.5z M96.6,527.5h-0.5
			v-0.6h0.5V527.5z M97.6,527.5h-0.5v-0.6h0.5V527.5z"/>
		<path class="st0" d="M101.5,531.2h-1.2c-0.1,0.7-0.6,1.1-1.5,1.2v-0.5c0.7,0,1-0.4,1-1.2V528h0.5v2.7h1.2V531.2z"/>
		<path class="st0" d="M108.1,531.2h-6.8v-0.5h0.7c0.5,0,0.8-0.3,0.8-0.9V528h0.5v2c0,0.3,0,0.5-0.1,0.7v0h0.9c0.5,0,0.6-0.2,0.6-1
			V528h0.5v2c0,0.3,0,0.6-0.1,0.8h0.9c0.5,0,0.7-0.2,0.7-1V528h0.5v2c0,0.3-0.1,0.6-0.1,0.8h1.2V531.2z M104.7,527.5h-0.5v-0.6h0.5
			V527.5z M105.2,526.7h-0.5v-0.6h0.5V526.7z M105.7,527.5h-0.5v-0.6h0.5V527.5z"/>
		<path class="st0" d="M110.5,531.2H108v-0.5h0.5c0.3,0,0.5-0.1,0.6-0.3c0.1-0.1,0.1-0.4,0.1-0.7V528h0.5v2c0,0.3,0,0.6-0.1,0.8h0.9
			V531.2z M109.7,527.5h-0.5v-0.6h0.5V527.5z"/>
		<path class="st0" d="M112,526.6v3.4c0,0.8-0.3,1.3-1,1.3h-0.6v-0.5h0.5c0.3,0,0.5-0.1,0.6-0.3c0.1-0.1,0.1-0.4,0.1-0.7v-3.1H112z"
			/>
		<path class="st0" d="M113.5,531.2H113v-4.6h0.5V531.2z"/>
		<path class="st0" d="M118.4,529.6c0,0.5-0.1,0.9-0.4,1.2c-0.3,0.3-0.7,0.5-1.1,0.5c-0.5,0-0.8-0.2-1.1-0.5
			c-0.3-0.3-0.4-0.7-0.4-1.2c0-0.5,0.1-0.9,0.4-1.2c0.3-0.3,0.7-0.5,1.1-0.5c0.5,0,0.9,0.2,1.1,0.5
			C118.3,528.7,118.4,529.1,118.4,529.6z M117.8,529.5c0-0.3-0.1-0.6-0.2-0.8c-0.2-0.2-0.4-0.4-0.7-0.4c-0.3,0-0.6,0.1-0.8,0.4
			c-0.1,0.2-0.2,0.5-0.2,0.9c0,0.3,0.1,0.6,0.2,0.8c0.2,0.3,0.4,0.4,0.7,0.4C117.5,530.8,117.8,530.4,117.8,529.5z M116.7,527.5
			h-0.5v-0.6h0.5V527.5z M117.6,527.5h-0.5v-0.6h0.5V527.5z"/>
		<path class="st0" d="M121.5,530L121,530c-0.1-0.3-0.2-0.4-0.5-0.4c-0.3,0-0.5,0.2-0.5,0.7c0,0.2,0,0.3,0.1,0.4h1.3v0.5h-2.4v-0.5
			h0.5c-0.1-0.1-0.1-0.3-0.1-0.4c0-0.3,0.1-0.6,0.2-0.8c0.2-0.2,0.4-0.3,0.8-0.3C121,529.2,121.3,529.5,121.5,530z"/>
		<path class="st0" d="M122.9,531.2h-0.5v-4.6h0.5V531.2z"/>
		<path class="st0" d="M126.2,531.2H125c-0.1,0.7-0.6,1.1-1.5,1.2v-0.5c0.7,0,1-0.4,1-1.2V528h0.5v2.7h1.2V531.2z"/>
		<path class="st0" d="M130,529.6c0,0.9-0.6,1.6-1.5,1.6H126v-0.5h1.4c-0.2-0.3-0.4-0.7-0.4-1.1c0-0.9,0.6-1.6,1.5-1.6
			C129.5,528,130,528.6,130,529.6z M129.5,529.6c0-0.7-0.3-1.2-0.9-1.2c-0.6,0-1,0.5-1,1.2c0,0.7,0.3,1.2,0.9,1.2
			C129.2,530.8,129.5,530.4,129.5,529.6z M128.3,527.5h-0.5v-0.6h0.5V527.5z M129.3,527.5h-0.5v-0.6h0.5V527.5z"/>
		<path class="st0" d="M133.8,531.2h-0.6c-0.3,0-0.5-0.1-0.7-0.3c-0.2-0.2-0.3-0.5-0.3-0.9v-3.5h0.5v3.2c0,0.3,0.1,0.6,0.1,0.7
			c0.1,0.1,0.2,0.2,0.4,0.2c0.1,0,0.1,0,0.5,0V531.2z"/>
		<path class="st0" d="M136.6,526.7c-0.1,0.3-0.6,0.3-1.3,0.5c0.1-0.1,0.1-0.2,0.2-0.2L136.6,526.7z M136.6,526.3
			c-0.1,0.2-0.6,0.3-1.3,0.5c0-0.1,0.1-0.2,0.2-0.2L136.6,526.3z"/>
		<path class="st0" d="M138.3,531.2h-1.1c-0.3,0.4-0.7,0.6-1.2,0.6c-0.6,0-1-0.2-1.2-0.6h-1.1v-0.5h0.8c0-0.1-0.1-0.3-0.1-0.5
			c0-0.5,0.1-0.9,0.4-1.2c0.3-0.3,0.6-0.5,1.1-0.5c0.5,0,0.8,0.2,1.1,0.5c0.2,0.3,0.4,0.7,0.4,1.2c0,0.2,0,0.3-0.1,0.5h0.9V531.2z
			 M136.9,530.2c0-0.3-0.1-0.6-0.2-0.8c-0.1-0.2-0.4-0.3-0.7-0.3c-0.3,0-0.6,0.1-0.7,0.4c-0.1,0.2-0.2,0.5-0.2,0.8
			c0,0.3,0.1,0.6,0.2,0.8c0.2,0.2,0.4,0.3,0.7,0.3C136.6,531.4,136.9,531,136.9,530.2z"/>
		<path class="st0" d="M139.9,527.1l-0.3,0c0-0.2-0.2-0.3-0.3-0.3c-0.2,0-0.3,0.2-0.3,0.5c0,0.1,0,0.2,0.1,0.3h1v0.3h-1.7v-0.3h0.3
			c0-0.1-0.1-0.2-0.1-0.3c0-0.2,0.1-0.4,0.2-0.5c0.1-0.1,0.3-0.2,0.6-0.2C139.5,526.6,139.8,526.7,139.9,527.1z M139.9,528.4v1.6
			c0,0.8-0.3,1.3-1,1.3h-0.6v-0.5h0.5c0.3,0,0.5-0.1,0.6-0.3c0.1-0.1,0.1-0.4,0.1-0.7v-1.4H139.9z"/>
		<path class="st0" d="M141.3,531.2h-0.5v-4.6h0.5V531.2z"/>
		<path class="st0" d="M145.2,531.2h-3.2v-0.5h2.6c0-0.6-0.1-1.1-0.3-1.5c-0.3-0.5-0.7-0.7-1.3-0.7h-0.2V528c1,0,1.7,0.4,2.1,1.2
			C145.1,529.7,145.2,530.3,145.2,531.2z"/>
		<path class="st0" d="M153.1,531.2H153c-0.7,0-1.2-0.4-1.3-1c0,1.2-1.1,2.1-2.3,2.1c-1.3,0-2.3-1.1-2.3-2.5v-0.7h0.5v0.6
			c0,1.3,0.7,2.1,1.8,2.1c1,0,1.8-0.8,1.8-1.7c0-0.6-0.3-1-0.9-1v-0.5h0c0,0,0.1,0,0.4,0c0.4,0,1,0.4,1.3,1c0.3,0.7,0.5,0.9,1,0.9
			h0.1V531.2z"/>
		<path class="st0" d="M157.8,530.5v0.7h-5v-0.5h4.3c0-0.1,0-0.2,0-0.3c0-1.2-0.6-1.9-1.8-1.9c-0.6,0-1.1,0.2-1.3,0.7
			c-0.1-0.1-0.2-0.2-0.4-0.4c0.4-0.5,1-0.8,1.8-0.8C156.9,528.1,157.8,529,157.8,530.5z M155.9,532.3h-0.5v-0.6h0.5V532.3z"/>
		<path class="st0" d="M161,531.2h-1.2c-0.1,0.7-0.6,1.1-1.5,1.2v-0.5c0.7,0,1-0.4,1-1.2V528h0.5v2.7h1.2V531.2z"/>
		<path class="st0" d="M162.6,528v2c0,0.8-0.4,1.3-1.1,1.3h-0.6v-0.5h0.5c0.3,0,0.5-0.1,0.6-0.3c0.1-0.1,0.1-0.4,0.1-0.7V528H162.6z
			 M161.7,532.3h-0.5v-0.6h0.5V532.3z M162.6,532.3h-0.5v-0.6h0.5V532.3z"/>
		<path class="st0" d="M165.2,531.2h-0.6v-0.4c0-0.5,0.1-0.9,0.3-1.4h0.3c-0.1,0.4-0.2,0.8-0.2,1h0.3V531.2z"/>
		<path class="st0" d="M170.3,531.2h-0.2c-0.8,0-1.5-0.8-1.6-1.7h-0.9c-0.7,0-1.2,0.5-1.2,1.2c0,0.7,0.4,1.1,1.2,1.1h0.7v0.5h-0.7
			c-1,0-1.8-0.7-1.8-1.7c0-0.8,0.5-1.5,1.3-1.7c0.1,0,0.5,0,1,0h0.3c-0.1-0.9-0.5-1.4-1.2-1.4c-0.2,0-0.3,0-0.4,0.1v-0.4
			c0.1,0,0.3-0.1,0.5-0.1c1,0,1.6,0.6,1.6,1.9c0,0.9,0.5,1.6,1,1.6h0.3V531.2z M167.9,531h-0.5v-0.6h0.5V531z"/>
		<path class="st0" d="M172.6,531.2h-2.5v-0.5h0.5c0.3,0,0.5-0.1,0.6-0.3c0.1-0.1,0.1-0.4,0.1-0.7V528h0.5v2c0,0.3,0,0.6-0.1,0.8
			h0.9V531.2z M170.9,527.5h-0.5v-0.6h0.5V527.5z M171.8,527.5h-0.5v-0.6h0.5V527.5z"/>
		<path class="st0" d="M175,531.2h-2.5v-0.5h0.5c0.3,0,0.5-0.1,0.6-0.3c0.1-0.1,0.1-0.4,0.1-0.7V528h0.5v2c0,0.3,0,0.6-0.1,0.8h0.9
			V531.2z M174.2,527.5h-0.5v-0.6h0.5V527.5z"/>
		<path class="st0" d="M179.4,531.2h-1.1c-0.3,0.4-0.7,0.6-1.2,0.6c-0.6,0-1-0.2-1.2-0.6h-1.1v-0.5h0.8c0-0.1-0.1-0.3-0.1-0.5
			c0-0.5,0.1-0.9,0.4-1.2c0.3-0.3,0.6-0.5,1.1-0.5c0.5,0,0.8,0.2,1.1,0.5c0.2,0.3,0.4,0.7,0.4,1.2c0,0.2,0,0.3-0.1,0.5h0.9V531.2z
			 M178,530.2c0-0.3-0.1-0.6-0.2-0.8c-0.1-0.2-0.4-0.3-0.7-0.3c-0.3,0-0.6,0.1-0.7,0.4c-0.1,0.2-0.2,0.5-0.2,0.8
			c0,0.3,0.1,0.6,0.2,0.8c0.2,0.2,0.4,0.3,0.7,0.3C177.7,531.4,178,531,178,530.2z"/>
		<path class="st0" d="M180.9,526.6v3.4c0,0.8-0.3,1.3-1,1.3h-0.6v-0.5h0.5c0.3,0,0.5-0.1,0.6-0.3c0.1-0.1,0.1-0.4,0.1-0.7v-3.1
			H180.9z"/>
		<path class="st0" d="M182.4,531.2h-0.5v-4.6h0.5V531.2z"/>
		<path class="st0" d="M189.5,531.2h-1.4c-0.3,0.7-1,1.2-1.8,1.2c-1.2,0-2-1-2-2.5v-2h0.5v1.9c0,1.2,0.6,2.1,1.5,2.1
			c0.9,0,1.5-0.8,1.5-2.1V528h0.5v2c0,0.3,0,0.5-0.1,0.8h1.2V531.2z M186.5,527.5H186v-0.6h0.5V527.5z"/>
		<path class="st0" d="M193,531.2h-3.9v-0.5h1.1c-0.2-0.3-0.3-0.6-0.3-1c0-0.5,0.1-0.9,0.4-1.2c0.3-0.3,0.7-0.5,1.2-0.5
			c0.4,0,0.7,0.1,1,0.3c0.3,0.2,0.5,0.5,0.6,0.8l-0.6,0.1c-0.1-0.5-0.4-0.8-0.9-0.8c-0.3,0-0.6,0.1-0.8,0.4
			c-0.1,0.2-0.2,0.5-0.2,0.9c0,0.4,0.1,0.8,0.3,1h2.2V531.2z"/>
		<path class="st0" d="M198.9,531.2h-0.3c-0.7,0-1.2-0.3-1.4-1c-0.2,0.4-0.6,0.6-1.1,0.6c-0.7,0-1.3-0.8-1.3-1.7
			c0-1,0.5-1.7,1.4-1.7h1.5v2.3c0,0.7,0.3,1.1,0.9,1.1h0.3V531.2z M197.2,528.9v-1.3h-0.9c-0.6,0-1,0.6-1,1.3c0,0.7,0.4,1.3,0.9,1.3
			C196.8,530.3,197.1,529.9,197.2,528.9z M196.4,526.8h-0.5v-0.6h0.5V526.8z M197.3,526.8h-0.5v-0.6h0.5V526.8z"/>
		<path class="st0" d="M201.2,531.2h-2.5v-0.5h0.5c0.3,0,0.5-0.1,0.6-0.3c0.1-0.1,0.1-0.4,0.1-0.7v-3.1h0.5v3.4c0,0.3,0,0.6-0.1,0.8
			h0.9V531.2z"/>
		<path class="st0" d="M205.1,530.2c0,0.5-0.1,0.8-0.4,1.1c-0.3,0.3-0.6,0.5-1.1,0.5c-0.6,0-1-0.2-1.2-0.6H201v-0.5h1.2
			c0-0.1-0.1-0.3-0.1-0.5c0-0.5,0.1-0.9,0.4-1.2c0.3-0.3,0.6-0.5,1.1-0.5c0.5,0,0.8,0.2,1.1,0.5C205,529.4,205.1,529.8,205.1,530.2z
			 M204.5,530.2c0-0.3-0.1-0.6-0.2-0.8c-0.2-0.2-0.4-0.3-0.7-0.3c-0.3,0-0.6,0.1-0.7,0.4c-0.1,0.2-0.2,0.5-0.2,0.8
			c0,0.3,0.1,0.6,0.2,0.8c0.2,0.2,0.4,0.3,0.7,0.3C204.2,531.4,204.5,531,204.5,530.2z"/>
		<path class="st0" d="M207.6,531.2h-0.6c-0.3,0-0.5-0.1-0.7-0.3c-0.2-0.2-0.3-0.5-0.3-0.9v-3.5h0.5v3.2c0,0.3,0.1,0.6,0.1,0.7
			c0.1,0.1,0.2,0.2,0.4,0.2c0.1,0,0.1,0,0.5,0V531.2z"/>
		<path class="st0" d="M213.2,531.2h-5.9v-0.5h4.3c0-0.1,0-0.2,0-0.3c0-0.6-0.1-1-0.4-1.3c-0.3-0.4-0.8-0.6-1.4-0.6h-1.5
			c0.3-0.5,0.6-1.1,1.1-2h0.6l-0.9,1.5h0.6c0.7,0,1.3,0.2,1.7,0.7c0.4,0.4,0.6,1,0.6,1.8v0.2h1V531.2z"/>
		<path class="st0" d="M214.6,526.6v3.4c0,0.8-0.3,1.3-1,1.3h-0.6v-0.5h0.5c0.3,0,0.5-0.1,0.6-0.3c0.1-0.1,0.1-0.4,0.1-0.7v-3.1
			H214.6z"/>
		<path class="st0" d="M216.1,531.2h-0.5v-4.6h0.5V531.2z"/>
		<path class="st0" d="M223.2,528v2c0,0.8-0.3,1.3-1,1.3H220c-1.4,0-2.1-0.7-2.1-2.1V528h0.5v1.2c0,1.1,0.5,1.6,1.5,1.6h2.1
			c0.5,0,0.7-0.2,0.7-1V528H223.2z M220.4,528h-0.5v-0.6h0.5V528z M221.3,528h-0.5v-0.6h0.5V528z"/>
		<path class="st0" d="M225.8,531.2h-0.6c-0.3,0-0.5-0.1-0.7-0.3c-0.2-0.2-0.3-0.5-0.3-0.9v-3.5h0.5v3.2c0,0.3,0.1,0.6,0.1,0.7
			c0.1,0.1,0.2,0.2,0.4,0.2c0.1,0,0.1,0,0.5,0V531.2z"/>
		<path class="st0" d="M229.7,530.2c0,0.5-0.1,0.8-0.4,1.1c-0.3,0.3-0.6,0.5-1.1,0.5c-0.6,0-1-0.2-1.2-0.6h-1.4v-0.5h1.2
			c0-0.1-0.1-0.3-0.1-0.5c0-0.5,0.1-0.9,0.4-1.2c0.3-0.3,0.6-0.5,1.1-0.5c0.5,0,0.8,0.2,1.1,0.5
			C229.6,529.4,229.7,529.8,229.7,530.2z M229.1,530.2c0-0.3-0.1-0.6-0.2-0.8c-0.2-0.2-0.4-0.3-0.7-0.3c-0.3,0-0.6,0.1-0.7,0.4
			c-0.1,0.2-0.2,0.5-0.2,0.8c0,0.3,0.1,0.6,0.2,0.8c0.2,0.2,0.4,0.3,0.7,0.3C228.8,531.4,229.1,531,229.1,530.2z"/>
		<path class="st0" d="M234.1,531.2h-1c-0.1,0.7-0.6,1.1-1.5,1.2v-0.5h0.1c0.5,0,0.8-0.2,0.9-0.7h-0.8c-0.4,0-0.7-0.1-1-0.5
			s-0.4-0.7-0.4-1.2c0-0.5,0.1-0.8,0.4-1.2c0.3-0.3,0.6-0.5,1-0.5c0.8,0,1.3,0.5,1.3,1.4v1.3h0.9V531.2z M232.6,530.7v-1.5
			c0-0.2-0.1-0.4-0.2-0.5c-0.1-0.2-0.3-0.3-0.6-0.3c-0.3,0-0.5,0.1-0.7,0.4c-0.1,0.2-0.2,0.5-0.2,0.7c0,0.3,0.1,0.5,0.2,0.8
			c0.2,0.3,0.4,0.4,0.7,0.4L232.6,530.7z"/>
		<path class="st0" d="M236.4,531.2h-2.5v-0.5h0.5c0.3,0,0.5-0.1,0.6-0.3c0.1-0.1,0.1-0.4,0.1-0.7v-3.1h0.5v3.4c0,0.3,0,0.6-0.1,0.8
			h0.9V531.2z"/>
		<path class="st0" d="M241.4,531.2H240c-0.4,0-0.8-0.2-1.1-0.6c-0.4,0.4-1,0.6-1.6,0.6h-1.1v-0.5h1.1c0.3,0,0.5,0,0.7-0.1
			c0.2-0.1,0.4-0.2,0.6-0.4c-0.4-0.6-0.9-1-1.5-1.3l0-0.6c0.6-0.4,1.2-0.6,1.8-0.6c0.7,0,1.3,0.2,1.9,0.7c-0.2,0.3-0.3,0.6-0.5,0.8
			c-0.3,0.4-0.6,0.7-0.9,1c0.2,0.2,0.3,0.3,0.5,0.4c0.1,0,0.3,0,0.6,0h1V531.2z M240.2,528.7c-0.3-0.1-0.5-0.2-0.5-0.3
			c-0.2-0.1-0.5-0.1-0.7-0.1c-0.4,0-0.9,0.1-1.4,0.4c0.3,0.1,0.6,0.3,0.8,0.5c0.2,0.2,0.4,0.4,0.7,0.7
			C239.5,529.6,239.9,529.2,240.2,528.7z"/>
		<path class="st0" d="M245.9,531.2h-1.1c-0.3,0.4-0.7,0.6-1.2,0.6c-0.6,0-1-0.2-1.2-0.6h-1.1v-0.5h0.8c0-0.1-0.1-0.3-0.1-0.5
			c0-0.5,0.1-0.9,0.4-1.2c0.3-0.3,0.6-0.5,1.1-0.5c0.5,0,0.8,0.2,1.1,0.5c0.2,0.3,0.4,0.7,0.4,1.2c0,0.2,0,0.3-0.1,0.5h0.9V531.2z
			 M244.5,530.2c0-0.3-0.1-0.6-0.2-0.8c-0.1-0.2-0.4-0.3-0.7-0.3c-0.3,0-0.6,0.1-0.7,0.4c-0.1,0.2-0.2,0.5-0.2,0.8
			c0,0.3,0.1,0.6,0.2,0.8c0.2,0.2,0.4,0.3,0.7,0.3C244.2,531.4,244.5,531,244.5,530.2z"/>
		<path class="st0" d="M248.2,531.2h-2.5v-0.5h0.5c0.3,0,0.5-0.1,0.6-0.3c0.1-0.1,0.1-0.4,0.1-0.7v-3.1h0.5v3.4c0,0.3,0,0.6-0.1,0.8
			h0.9V531.2z"/>
		<path class="st0" d="M249.7,526.6v3.4c0,0.8-0.3,1.3-1,1.3H248v-0.5h0.5c0.3,0,0.5-0.1,0.6-0.3c0.1-0.1,0.1-0.4,0.1-0.7v-3.1
			H249.7z"/>
		<path class="st0" d="M25.8,535.5h2c0.6,0,1,0.2,1.3,0.5c0.2,0.2,0.4,0.6,0.4,0.9v0c0,0.8-0.5,1.2-1.3,1.4l1.4,1.9H29l-1.4-1.8h0
			h-1.3v1.8h-0.5V535.5z M27.7,537.9c0.7,0,1.2-0.4,1.2-1v0c0-0.6-0.4-0.9-1.2-0.9h-1.4v1.9H27.7z"/>
		<path class="st0" d="M30.6,535.5h0.5v4.2h2.6v0.5h-3.2V535.5z"/>
		<path class="st0" d="M34.6,539.7l0.3-0.4c0.4,0.3,0.7,0.5,1.2,0.5c0.8,0,1.4-0.9,1.4-2.1c-0.3,0.4-0.7,0.7-1.3,0.7
			c-1,0-1.6-0.6-1.6-1.5v0c0-0.9,0.7-1.6,1.7-1.6c0.5,0,0.9,0.2,1.2,0.5c0.4,0.4,0.6,0.9,0.6,1.8v0c0,1.5-0.8,2.5-1.9,2.5
			C35.5,540.2,35,540,34.6,539.7z M37.4,536.9L37.4,536.9c0-0.6-0.5-1.1-1.2-1.1s-1.1,0.5-1.1,1.1v0c0,0.6,0.5,1,1.2,1
			C36.9,538,37.4,537.5,37.4,536.9z"/>
		<path class="st0" d="M38.8,537.8L38.8,537.8c0-1.3,0.8-2.4,2-2.4s2,1.1,2,2.4v0c0,1.3-0.8,2.4-2,2.4
			C39.6,540.2,38.8,539.1,38.8,537.8z M42.2,537.8L42.2,537.8c0-1-0.6-2-1.4-2c-0.9,0-1.4,0.9-1.4,1.9v0c0,1,0.6,1.9,1.4,1.9
			S42.2,538.8,42.2,537.8z"/>
		<path class="st0" d="M47.5,539.7c-0.4,0.3-0.9,0.5-1.5,0.5c-1.4,0-2.4-1.1-2.4-2.4v0c0-1.3,1-2.4,2.4-2.4c1.4,0,2.4,1.1,2.4,2.4
			c0,0,0,0,0,0c0,0.6-0.2,1.1-0.6,1.6l0.6,0.5l-0.4,0.4L47.5,539.7z M47.1,539.4l-0.9-0.7l0.4-0.4l0.9,0.8c0.3-0.3,0.4-0.8,0.4-1.2
			v0c0-1.1-0.8-1.9-1.8-1.9c-1.1,0-1.8,0.9-1.8,1.9v0c0,1.1,0.8,1.9,1.8,1.9C46.5,539.7,46.9,539.6,47.1,539.4z"/>
		<path class="st0" d="M50.6,538.3l-1.9-2.8h0.6l1.6,2.3l1.6-2.3h0.6l-1.9,2.8v1.9h-0.5V538.3z"/>
		<path class="st0" d="M54.9,535.4h0.5l2.1,4.7H57l-0.5-1.2h-2.6l-0.6,1.2h-0.5L54.9,535.4z M56.2,538.4l-1.1-2.4l-1.1,2.4H56.2z"/>
		<path class="st0" d="M58.8,539.8c-0.4-0.4-0.6-0.9-0.6-1.8v0c0-1.4,0.7-2.5,1.9-2.5c0.6,0,1,0.2,1.4,0.5l-0.3,0.4
			c-0.3-0.3-0.7-0.5-1.1-0.5c-0.9,0-1.4,0.9-1.4,2.1c0.3-0.4,0.6-0.7,1.3-0.7c0.9,0,1.6,0.6,1.6,1.4v0c0,0.9-0.7,1.6-1.7,1.6
			C59.5,540.2,59.1,540.1,58.8,539.8z M61.2,538.7L61.2,538.7c0-0.6-0.5-1-1.1-1c-0.7,0-1.2,0.5-1.2,1v0c0,0.6,0.5,1.1,1.2,1.1
			C60.7,539.8,61.2,539.3,61.2,538.7z"/>
		<path class="st0" d="M62.6,537.9h1.9v0.5h-1.9V537.9z"/>
		<path class="st0" d="M65.2,539.7l1.7-1.5c0.7-0.6,1-1,1-1.5c0-0.5-0.4-0.9-0.9-0.9c-0.5,0-0.9,0.3-1.3,0.8l-0.4-0.3
			c0.4-0.6,0.9-1,1.7-1c0.8,0,1.5,0.6,1.5,1.3v0c0,0.7-0.4,1.1-1.2,1.8l-1.3,1.1h2.5v0.5h-3.3V539.7z"/>
		<path class="st0" d="M69.4,539.7l0.3-0.4c0.4,0.3,0.7,0.5,1.2,0.5c0.8,0,1.4-0.9,1.4-2.1c-0.3,0.4-0.7,0.7-1.3,0.7
			c-1,0-1.6-0.6-1.6-1.5v0c0-0.9,0.7-1.6,1.7-1.6c0.5,0,0.9,0.2,1.2,0.5c0.4,0.4,0.6,0.9,0.6,1.8v0c0,1.5-0.8,2.5-1.9,2.5
			C70.3,540.2,69.8,540,69.4,539.7z M72.2,536.9L72.2,536.9c0-0.6-0.5-1.1-1.2-1.1c-0.7,0-1.1,0.5-1.1,1.1v0c0,0.6,0.5,1,1.2,1
			C71.7,538,72.2,537.5,72.2,536.9z"/>
		<path class="st0" d="M73.6,537.8L73.6,537.8c0-1.3,0.8-2.4,2-2.4s2,1.1,2,2.4v0c0,1.3-0.8,2.4-2,2.4
			C74.4,540.2,73.6,539.1,73.6,537.8z M77,537.8L77,537.8c0-1-0.6-2-1.4-2c-0.9,0-1.4,0.9-1.4,1.9v0c0,1,0.6,1.9,1.4,1.9
			S77,538.8,77,537.8z"/>
		<path class="st0" d="M80.8,535.9h-2.6v-0.5h3.2v0.4l-2.1,4.3h-0.6L80.8,535.9z"/>
		<path class="st0" d="M82,539.7l1.7-1.5c0.7-0.6,1-1,1-1.5c0-0.5-0.4-0.9-0.9-0.9c-0.5,0-0.9,0.3-1.3,0.8l-0.4-0.3
			c0.4-0.6,0.9-1,1.7-1c0.8,0,1.5,0.6,1.5,1.3v0c0,0.7-0.4,1.1-1.2,1.8l-1.3,1.1h2.5v0.5H82V539.7z"/>
		<path class="st0" d="M86,539.7l1.7-1.5c0.7-0.6,1-1,1-1.5c0-0.5-0.4-0.9-0.9-0.9c-0.5,0-0.9,0.3-1.3,0.8l-0.4-0.3
			c0.4-0.6,0.9-1,1.7-1c0.8,0,1.5,0.6,1.5,1.3v0c0,0.7-0.4,1.1-1.2,1.8l-1.3,1.1h2.5v0.5H86V539.7z"/>
		<path class="st0" d="M92.5,540.2h-0.6v-0.4c0-0.4,0.1-0.9,0.3-1.3h0.3c-0.1,0.4-0.2,0.7-0.2,1h0.3V540.2z"/>
		<path class="st0" d="M93.2,539.4l0.4-0.3c0.4,0.4,0.8,0.7,1.4,0.7c0.6,0,1-0.4,1-0.9v0c0-0.6-0.5-0.9-1.3-0.9h-0.3l-0.1-0.3
			l1.5-1.7h-2.3v-0.5h3v0.4l-1.5,1.6c0.8,0.1,1.5,0.5,1.5,1.3v0c0,0.8-0.7,1.4-1.6,1.4C94.2,540.2,93.6,539.9,93.2,539.4z"/>
		<path class="st0" d="M101.3,539.7c-0.4,0.3-0.9,0.5-1.5,0.5c-1.4,0-2.4-1.1-2.4-2.4v0c0-1.3,1-2.4,2.4-2.4c1.4,0,2.4,1.1,2.4,2.4
			c0,0,0,0,0,0c0,0.6-0.2,1.1-0.6,1.6l0.6,0.5l-0.4,0.4L101.3,539.7z M100.9,539.4l-0.9-0.7l0.4-0.4l0.9,0.8
			c0.3-0.3,0.4-0.8,0.4-1.2v0c0-1.1-0.8-1.9-1.8-1.9c-1.1,0-1.8,0.9-1.8,1.9v0c0,1.1,0.8,1.9,1.8,1.9
			C100.3,539.7,100.7,539.6,100.9,539.4z"/>
		<path class="st0" d="M103,539.7l1.7-1.5c0.7-0.6,1-1,1-1.5c0-0.5-0.4-0.9-0.9-0.9c-0.5,0-0.9,0.3-1.3,0.8l-0.4-0.3
			c0.4-0.6,0.9-1,1.7-1c0.8,0,1.5,0.6,1.5,1.3v0c0,0.7-0.4,1.1-1.2,1.8l-1.3,1.1h2.5v0.5H103V539.7z"/>
		<path class="st0" d="M107,539.4l0.4-0.3c0.4,0.4,0.8,0.7,1.4,0.7c0.6,0,1-0.4,1-0.9v0c0-0.6-0.5-0.9-1.3-0.9h-0.3l-0.1-0.3
			l1.5-1.7h-2.3v-0.5h3v0.4l-1.5,1.6c0.8,0.1,1.5,0.5,1.5,1.3v0c0,0.8-0.7,1.4-1.6,1.4C108,540.2,107.4,539.9,107,539.4z"/>
		<path class="st0" d="M111.2,538.9L111.2,538.9c0-0.6,0.4-1,1-1.2c-0.4-0.2-0.8-0.5-0.8-1.1v0c0-0.7,0.7-1.2,1.6-1.2
			s1.6,0.5,1.6,1.2v0c0,0.5-0.4,0.9-0.8,1.1c0.6,0.2,1,0.6,1,1.1v0c0,0.8-0.8,1.3-1.8,1.3C111.9,540.2,111.2,539.7,111.2,538.9z
			 M114.1,538.9L114.1,538.9c0-0.5-0.5-0.9-1.2-0.9c-0.7,0-1.2,0.4-1.2,0.9v0c0,0.5,0.5,0.9,1.2,0.9
			C113.7,539.8,114.1,539.4,114.1,538.9z M114,536.7L114,536.7c0-0.5-0.5-0.8-1.1-0.8c-0.6,0-1.1,0.3-1.1,0.8v0
			c0,0.5,0.5,0.9,1.1,0.9C113.5,537.5,114,537.2,114,536.7z"/>
		<path class="st0" d="M117.4,535.4h0.5l2.1,4.7h-0.6l-0.5-1.2h-2.6l-0.6,1.2h-0.5L117.4,535.4z M118.7,538.4l-1.1-2.4l-1.1,2.4
			H118.7z"/>
		<path class="st0" d="M120.5,537.8L120.5,537.8c0-1.3,1-2.4,2.4-2.4c1.4,0,2.4,1.1,2.4,2.4c0,0,0,0,0,0c0,1.3-1,2.4-2.4,2.4
			C121.5,540.2,120.5,539.1,120.5,537.8z M124.7,537.8L124.7,537.8c0-1.1-0.8-1.9-1.8-1.9c-1.1,0-1.8,0.9-1.8,1.9v0
			c0,1.1,0.8,1.9,1.8,1.9C124,539.7,124.7,538.9,124.7,537.8z"/>
		<path class="st0" d="M126.4,535.5h0.5l3,3.8v-3.8h0.5v4.7h-0.4l-3-3.8v3.8h-0.5V535.5z"/>
		<path class="st0" d="M131.5,537.9h1.9v0.5h-1.9V537.9z"/>
		<path class="st0" d="M134.2,537.8L134.2,537.8c0-1.3,0.8-2.4,2-2.4s2,1.1,2,2.4v0c0,1.3-0.8,2.4-2,2.4
			C134.9,540.2,134.2,539.1,134.2,537.8z M137.6,537.8L137.6,537.8c0-1-0.6-2-1.4-2c-0.9,0-1.4,0.9-1.4,1.9v0c0,1,0.6,1.9,1.4,1.9
			S137.6,538.8,137.6,537.8z"/>
		<path class="st0" d="M138.8,539.7l1.7-1.5c0.7-0.6,1-1,1-1.5c0-0.5-0.4-0.9-0.9-0.9c-0.5,0-0.9,0.3-1.3,0.8l-0.4-0.3
			c0.4-0.6,0.9-1,1.7-1c0.8,0,1.5,0.6,1.5,1.3v0c0,0.7-0.4,1.1-1.2,1.8l-1.3,1.1h2.5v0.5h-3.3V539.7z"/>
		<path class="st0" d="M142.9,537.8L142.9,537.8c0-1.3,0.8-2.4,2-2.4s2,1.1,2,2.4v0c0,1.3-0.8,2.4-2,2.4
			C143.7,540.2,142.9,539.1,142.9,537.8z M146.3,537.8L146.3,537.8c0-1-0.6-2-1.4-2c-0.9,0-1.4,0.9-1.4,1.9v0c0,1,0.6,1.9,1.4,1.9
			S146.3,538.8,146.3,537.8z"/>
		<path class="st0" d="M147.6,538.9L147.6,538.9c0-0.6,0.4-1,1-1.2c-0.4-0.2-0.8-0.5-0.8-1.1v0c0-0.7,0.7-1.2,1.6-1.2
			s1.6,0.5,1.6,1.2v0c0,0.5-0.4,0.9-0.8,1.1c0.6,0.2,1,0.6,1,1.1v0c0,0.8-0.8,1.3-1.8,1.3C148.4,540.2,147.6,539.7,147.6,538.9z
			 M150.6,538.9L150.6,538.9c0-0.5-0.5-0.9-1.2-0.9c-0.7,0-1.2,0.4-1.2,0.9v0c0,0.5,0.5,0.9,1.2,0.9
			C150.1,539.8,150.6,539.4,150.6,538.9z M150.5,536.7L150.5,536.7c0-0.5-0.5-0.8-1.1-0.8c-0.6,0-1.1,0.3-1.1,0.8v0
			c0,0.5,0.5,0.9,1.1,0.9C150,537.5,150.5,537.2,150.5,536.7z"/>
		<path class="st0" d="M151.8,539.7l1.7-1.5c0.7-0.6,1-1,1-1.5c0-0.5-0.4-0.9-0.9-0.9c-0.5,0-0.9,0.3-1.3,0.8l-0.4-0.3
			c0.4-0.6,0.9-1,1.7-1c0.8,0,1.5,0.6,1.5,1.3v0c0,0.7-0.4,1.1-1.2,1.8l-1.3,1.1h2.5v0.5h-3.3V539.7z"/>
		<path class="st0" d="M155.8,539.7l1.7-1.5c0.7-0.6,1-1,1-1.5c0-0.5-0.4-0.9-0.9-0.9c-0.5,0-0.9,0.3-1.3,0.8l-0.4-0.3
			c0.4-0.6,0.9-1,1.7-1c0.8,0,1.5,0.6,1.5,1.3v0c0,0.7-0.4,1.1-1.2,1.8l-1.3,1.1h2.5v0.5h-3.3V539.7z"/>
		<path class="st0" d="M162.3,540.2h-0.6v-0.4c0-0.4,0.1-0.9,0.3-1.3h0.3c-0.1,0.4-0.2,0.7-0.2,1h0.3V540.2z"/>
		<path class="st0" d="M165.1,535.4h0.5l2.1,4.7h-0.6l-0.5-1.2h-2.6l-0.6,1.2H163L165.1,535.4z M166.4,538.4l-1.1-2.4l-1.1,2.4
			H166.4z"/>
		<path class="st0" d="M168.3,539.4l0.4-0.3c0.4,0.4,0.8,0.7,1.4,0.7c0.6,0,1-0.4,1-0.9v0c0-0.6-0.5-0.9-1.3-0.9h-0.3l-0.1-0.3
			l1.5-1.7h-2.3v-0.5h3v0.4l-1.5,1.6c0.8,0.1,1.5,0.5,1.5,1.3v0c0,0.8-0.7,1.4-1.6,1.4C169.3,540.2,168.7,539.9,168.3,539.4z"/>
		<path class="st0" d="M172.3,539.4l0.4-0.3c0.3,0.4,0.6,0.7,1.1,0.7c0.5,0,0.9-0.4,0.9-1.1v-3.1h0.5v3.1c0,0.5-0.2,1-0.4,1.2
			c-0.3,0.3-0.6,0.4-1,0.4C173,540.2,172.6,539.9,172.3,539.4z"/>
		<path class="st0" d="M176.5,535.5h1.6c1.5,0,2.5,1,2.5,2.3v0c0,1.3-1,2.3-2.5,2.3h-1.6V535.5z M178.1,539.7c1.2,0,1.9-0.8,1.9-1.8
			v0c0-1-0.8-1.9-1.9-1.9H177v3.7H178.1z"/>
		<path class="st0" d="M182.2,536l-0.9,0.3l-0.1-0.4l1.1-0.4h0.4v4.7h-0.5V536z"/>
		<path class="st0" d="M183.7,535.5h0.6l1.7,4l1.7-4h0.6l-2,4.7h-0.5L183.7,535.5z"/>
		<path class="st0" d="M187.8,539.4l0.4-0.3c0.3,0.4,0.6,0.7,1.1,0.7c0.5,0,0.9-0.4,0.9-1.1v-3.1h0.5v3.1c0,0.5-0.2,1-0.4,1.2
			c-0.3,0.3-0.6,0.4-1,0.4C188.6,540.2,188.1,539.9,187.8,539.4z"/>
		<path class="st0" d="M191.8,539.8l3-3.9h-2.9v-0.5h3.7v0.4l-3,3.9h3v0.5h-3.8V539.8z"/>
		<path class="st0" d="M196.2,537.9h1.9v0.5h-1.9V537.9z"/>
		<path class="st0" d="M198.8,539.7l1.7-1.5c0.7-0.6,1-1,1-1.5c0-0.5-0.4-0.9-0.9-0.9c-0.5,0-0.9,0.3-1.3,0.8l-0.4-0.3
			c0.4-0.6,0.9-1,1.7-1c0.8,0,1.5,0.6,1.5,1.3v0c0,0.7-0.4,1.1-1.2,1.8l-1.3,1.1h2.5v0.5h-3.3V539.7z"/>
		<path class="st0" d="M203,539.7l0.3-0.4c0.4,0.3,0.7,0.5,1.2,0.5c0.8,0,1.4-0.9,1.4-2.1c-0.3,0.4-0.7,0.7-1.3,0.7
			c-1,0-1.6-0.6-1.6-1.5v0c0-0.9,0.7-1.6,1.7-1.6c0.5,0,0.9,0.2,1.2,0.5c0.4,0.4,0.6,0.9,0.6,1.8v0c0,1.5-0.8,2.5-1.9,2.5
			C203.9,540.2,203.4,540,203,539.7z M205.8,536.9L205.8,536.9c0-0.6-0.5-1.1-1.2-1.1c-0.7,0-1.1,0.5-1.1,1.1v0c0,0.6,0.5,1,1.2,1
			C205.4,538,205.8,537.5,205.8,536.9z"/>
		<path class="st0" d="M207.3,537.8L207.3,537.8c0-1.3,0.8-2.4,2-2.4s2,1.1,2,2.4v0c0,1.3-0.8,2.4-2,2.4
			C208,540.2,207.3,539.1,207.3,537.8z M210.7,537.8L210.7,537.8c0-1-0.6-2-1.4-2c-0.9,0-1.4,0.9-1.4,1.9v0c0,1,0.6,1.9,1.4,1.9
			S210.7,538.8,210.7,537.8z"/>
		<path class="st0" d="M214.5,535.9h-2.6v-0.5h3.2v0.4l-2.1,4.3h-0.6L214.5,535.9z"/>
		<path class="st0" d="M215.7,539.7l1.7-1.5c0.7-0.6,1-1,1-1.5c0-0.5-0.4-0.9-0.9-0.9c-0.5,0-0.9,0.3-1.3,0.8l-0.4-0.3
			c0.4-0.6,0.9-1,1.7-1c0.8,0,1.5,0.6,1.5,1.3v0c0,0.7-0.4,1.1-1.2,1.8l-1.3,1.1h2.5v0.5h-3.3V539.7z"/>
		<path class="st0" d="M219.7,539.7l1.7-1.5c0.7-0.6,1-1,1-1.5c0-0.5-0.4-0.9-0.9-0.9c-0.5,0-0.9,0.3-1.3,0.8l-0.4-0.3
			c0.4-0.6,0.9-1,1.7-1c0.8,0,1.5,0.6,1.5,1.3v0c0,0.7-0.4,1.1-1.2,1.8l-1.3,1.1h2.5v0.5h-3.3V539.7z"/>
		<path class="st0" d="M226.2,538.7h-0.6V538h0.6V538.7z M226.2,540.2h-0.6v-0.7h0.6V540.2z"/>
		<path class="st0" d="M230.9,540.2h-0.3c-0.7,0-1.2-0.3-1.4-1c-0.2,0.4-0.6,0.6-1.1,0.6c-0.7,0-1.3-0.8-1.3-1.7
			c0-1,0.5-1.7,1.4-1.7h1.5v2.3c0,0.7,0.3,1.1,0.9,1.1h0.3V540.2z M229.2,537.9v-1.3h-0.9c-0.6,0-1,0.6-1,1.3c0,0.7,0.4,1.3,0.9,1.3
			C228.9,539.3,229.2,538.8,229.2,537.9z M228.5,535.7h-0.5v-0.6h0.5V535.7z M229.4,535.7h-0.5v-0.6h0.5V535.7z"/>
		<path class="st0" d="M236.5,540.2h-5.7v-0.5h4.3c0-0.1,0-0.2,0-0.3c0-1.2-0.6-1.9-1.8-1.9c-0.6,0-1.1,0.2-1.3,0.7
			c-0.1-0.1-0.2-0.2-0.4-0.4c0.4-0.5,1-0.8,1.8-0.8c1.4,0,2.4,0.9,2.4,2.4v0.2h0.8V540.2z"/>
		<path class="st0" d="M243.1,540.2h-6.8v-0.5h0.7c0.5,0,0.8-0.4,0.8-1.1v-1.3h0.5v1.2c0,0.1,0,0.1,0,0.1c0.5-1,1.4-1.7,2.2-1.7
			c1.1,0,1.7,0.8,1.7,2.4v0.3h0.9V540.2z M241.6,539.7c0-0.2,0-0.3,0-0.5c0-1.1-0.5-1.9-1.2-1.9c-0.9,0-2,1.1-2.3,2.3H241.6z"/>
		<path class="st0" d="M244.6,535.5v3.4c0,0.8-0.3,1.3-1,1.3h-0.6v-0.5h0.5c0.3,0,0.5-0.1,0.6-0.3c0.1-0.1,0.1-0.4,0.1-0.7v-3.1
			H244.6z"/>
		<path class="st0" d="M246.1,540.2h-0.5v-4.6h0.5V540.2z"/>
		<path class="st0" d="M251,538.5c0,0.5-0.1,0.9-0.4,1.2c-0.3,0.3-0.7,0.5-1.1,0.5c-0.5,0-0.8-0.2-1.1-0.5c-0.3-0.3-0.4-0.7-0.4-1.2
			c0-0.5,0.1-0.9,0.4-1.2c0.3-0.3,0.7-0.5,1.1-0.5c0.5,0,0.9,0.2,1.1,0.5C250.9,537.6,251,538,251,538.5z M250.4,538.5
			c0-0.3-0.1-0.6-0.2-0.8c-0.2-0.2-0.4-0.4-0.7-0.4c-0.3,0-0.6,0.1-0.8,0.4c-0.1,0.2-0.2,0.5-0.2,0.9c0,0.3,0.1,0.6,0.2,0.8
			c0.2,0.3,0.4,0.4,0.7,0.4C250.1,539.7,250.4,539.3,250.4,538.5z M249.3,536.4h-0.5v-0.6h0.5V536.4z M250.2,536.4h-0.5v-0.6h0.5
			V536.4z"/>
		<path class="st0" d="M253,536.9v2.6c0,1.2-0.5,1.7-1.5,1.8v-0.5c0.7,0,1-0.4,1-1.2v-2.7H253z"/>
		<path class="st0" d="M254.5,540.2H254v-4.6h0.5V540.2z"/>
		<path class="st0" d="M256.6,536.9v2.6c0,1.2-0.5,1.7-1.5,1.8v-0.5c0.7,0,1-0.4,1-1.2v-2.7H256.6z M256.6,536.4h-0.5v-0.6h0.5
			V536.4z"/>
		<path class="st0" d="M260.1,538.5v1.1c0,1.2-0.5,1.7-1.5,1.8v-0.5c0.7,0,1-0.4,1-1.2c-0.2,0.3-0.4,0.4-0.8,0.4
			c-0.8,0-1.4-0.7-1.4-1.6c0-0.9,0.6-1.6,1.4-1.6C259.5,536.9,260.1,537.6,260.1,538.5z M259.6,538.5c0-0.6-0.4-1.2-0.9-1.2
			c-0.5,0-0.8,0.5-0.8,1.1c0,0.6,0.4,1.1,0.9,1.1C259.3,539.6,259.6,539.1,259.6,538.5z"/>
		<path class="st0" d="M268.6,540.2h-0.2c-0.8,0-1.3-0.3-1.5-0.8c-0.3,0.5-0.7,0.8-1.3,0.8c-1,0-1.5-0.7-1.5-1.6
			c0-0.5,0.1-0.9,0.4-1.2h-1c-0.6,0-1,0.6-1,1.6v2.4h-0.5v-2.4c0-1.3,0.5-2,1.5-2h2.1c0.8,0,1.4,0.6,1.5,1.6
			c0.1,0.7,0.6,1.1,1.3,1.1h0.3c0,0.1,0,0.2,0,0.3C268.6,540,268.6,540.1,268.6,540.2z M266.4,538.5c0-0.7-0.3-1.1-0.9-1.1
			c-0.6,0-0.9,0.5-0.9,1.2c0,0.7,0.3,1.1,0.9,1.1C266.1,539.7,266.4,539.3,266.4,538.5z"/>
		<path class="st0" d="M272.4,538.5c0,0.9-0.6,1.6-1.5,1.6h-2.5v-0.5h1.4c-0.2-0.3-0.4-0.7-0.4-1.1c0-0.9,0.6-1.6,1.5-1.6
			C271.8,536.9,272.4,537.6,272.4,538.5z M271.8,538.5c0-0.7-0.3-1.2-0.9-1.2c-0.6,0-1,0.5-1,1.2c0,0.7,0.4,1.2,0.9,1.2
			C271.5,539.7,271.8,539.3,271.8,538.5z M270.7,536.4h-0.5v-0.6h0.5V536.4z M271.6,536.4h-0.5v-0.6h0.5V536.4z"/>
		<path class="st0" d="M274.4,536.9v2.6c0,1.2-0.5,1.7-1.5,1.8v-0.5c0.7,0,1-0.4,1-1.2v-2.7H274.4z"/>
		<path class="st0" d="M16.3,546.8L16.3,546.8c0-1.3,1-2.4,2.4-2.4c0.8,0,1.4,0.3,1.8,0.7l-0.4,0.4c-0.4-0.4-0.8-0.6-1.5-0.6
			c-1,0-1.8,0.8-1.8,1.9v0c0,1.1,0.8,1.9,1.8,1.9c0.6,0,1.1-0.2,1.5-0.7l0.3,0.3c-0.5,0.5-1,0.8-1.9,0.8
			C17.3,549.2,16.3,548.1,16.3,546.8z"/>
		<path class="st0" d="M21,547.4L21,547.4c0-1,0.8-1.8,1.8-1.8c1,0,1.8,0.8,1.8,1.8v0c0,1-0.8,1.8-1.8,1.8
			C21.8,549.2,21,548.3,21,547.4z M24.1,547.4L24.1,547.4c0-0.8-0.6-1.4-1.3-1.4c-0.8,0-1.3,0.6-1.3,1.3v0c0,0.7,0.5,1.3,1.3,1.3
			C23.6,548.7,24.1,548.1,24.1,547.4z"/>
		<path class="st0" d="M25.6,545.6h0.5v0.6c0.2-0.4,0.6-0.7,1.2-0.7c0.8,0,1.3,0.6,1.3,1.4v2.1h-0.5v-2c0-0.6-0.3-1-1-1
			c-0.6,0-1,0.4-1,1.1v2h-0.5V545.6z"/>
		<path class="st0" d="M29.9,548.2v-2.1h-0.5v-0.5h0.5v-1h0.5v1h1.1v0.5h-1.1v2c0,0.4,0.2,0.6,0.6,0.6c0.2,0,0.3,0,0.5-0.1v0.4
			c-0.2,0.1-0.4,0.1-0.6,0.1C30.3,549.1,29.9,548.9,29.9,548.2z"/>
		<path class="st0" d="M32.1,548.1L32.1,548.1c0-0.8,0.6-1.1,1.5-1.1c0.4,0,0.8,0.1,1.1,0.1V547c0-0.6-0.4-0.9-1-0.9
			c-0.4,0-0.7,0.1-1.1,0.2l-0.2-0.4c0.4-0.2,0.8-0.3,1.3-0.3c0.5,0,0.9,0.1,1.1,0.4c0.2,0.2,0.4,0.6,0.4,1v2.1h-0.5v-0.5
			c-0.2,0.3-0.6,0.6-1.2,0.6C32.8,549.2,32.1,548.8,32.1,548.1z M34.7,547.8v-0.3c-0.3-0.1-0.6-0.1-1-0.1c-0.6,0-1,0.3-1,0.7v0
			c0,0.4,0.4,0.7,0.9,0.7C34.2,548.7,34.7,548.4,34.7,547.8z"/>
		<path class="st0" d="M36.1,547.4L36.1,547.4c0-1,0.8-1.8,1.8-1.8c0.7,0,1.1,0.3,1.4,0.6l-0.3,0.4c-0.3-0.3-0.6-0.5-1.1-0.5
			c-0.7,0-1.2,0.6-1.2,1.3v0c0,0.7,0.5,1.3,1.3,1.3c0.4,0,0.8-0.2,1.1-0.5l0.3,0.3c-0.3,0.4-0.8,0.7-1.4,0.7
			C36.8,549.2,36.1,548.3,36.1,547.4z"/>
		<path class="st0" d="M40.3,548.2v-2.1h-0.5v-0.5h0.5v-1h0.5v1h1.1v0.5h-1.1v2c0,0.4,0.2,0.6,0.6,0.6c0.2,0,0.3,0,0.5-0.1v0.4
			c-0.2,0.1-0.4,0.1-0.6,0.1C40.7,549.1,40.3,548.9,40.3,548.2z"/>
		<path class="st0" d="M42.8,547.8v-2.1h0.5v2c0,0.6,0.3,1,1,1c0.6,0,1-0.4,1-1.1v-2h0.5v3.5h-0.5v-0.6c-0.2,0.4-0.6,0.7-1.2,0.7
			C43.2,549.2,42.8,548.6,42.8,547.8z"/>
		<path class="st0" d="M46.6,548.6l0.3-0.4c0.4,0.3,0.8,0.4,1.2,0.4c0.4,0,0.7-0.2,0.7-0.5v0c0-0.3-0.4-0.5-0.9-0.6
			c-0.5-0.2-1.1-0.3-1.1-1v0c0-0.6,0.5-1,1.2-1c0.4,0,0.9,0.1,1.2,0.4l-0.2,0.4c-0.3-0.2-0.7-0.3-1-0.3c-0.4,0-0.7,0.2-0.7,0.5v0
			c0,0.3,0.4,0.5,0.9,0.6c0.5,0.2,1.1,0.4,1.1,1v0c0,0.7-0.5,1-1.2,1C47.6,549.1,47,549,46.6,548.6z"/>
		<path class="st0" d="M50.1,546.8H52v0.5h-1.9V546.8z"/>
		<path class="st0" d="M53,545.6h0.5v0.6c0.2-0.3,0.5-0.7,1.1-0.7c0.6,0,0.9,0.3,1.1,0.7c0.2-0.4,0.6-0.7,1.2-0.7
			c0.8,0,1.3,0.5,1.3,1.4v2.1h-0.5v-2c0-0.7-0.3-1-0.9-1c-0.5,0-1,0.4-1,1.1v2h-0.5v-2c0-0.6-0.3-1-0.9-1c-0.5,0-1,0.5-1,1.1v2H53
			V545.6z"/>
		<path class="st0" d="M60.9,548.7c0.5,0,0.8-0.2,1.1-0.5l0.3,0.3c-0.3,0.4-0.8,0.6-1.4,0.6c-1,0-1.7-0.7-1.7-1.8
			c0-1,0.7-1.8,1.7-1.8c1,0,1.6,0.8,1.6,1.8c0,0,0,0.1,0,0.2h-2.7C59.7,548.3,60.3,548.7,60.9,548.7z M61.9,547.1
			c-0.1-0.6-0.4-1.2-1.1-1.2c-0.6,0-1.1,0.5-1.1,1.2H61.9z"/>
		<path class="st0" d="M63.1,547.2c0-1.6,1.3-2.9,2.9-2.9c1.6,0,2.9,1.3,2.9,2.7c0,1.1-0.6,1.6-1.3,1.6c-0.5,0-0.8-0.2-0.9-0.6
			c-0.3,0.3-0.6,0.6-1.1,0.6c-0.7,0-1.2-0.5-1.2-1.2c0-1,0.8-1.7,1.5-1.7c0.5,0,0.8,0.3,1,0.6l0.1-0.5l0.4,0.1l-0.3,1.5
			c0,0.2,0,0.3,0,0.4c0,0.3,0.2,0.5,0.6,0.5c0.5,0,0.9-0.4,0.9-1.4c0-1.2-1.1-2.4-2.7-2.4c-1.5,0-2.7,1.2-2.7,2.7
			c0,1.5,1.1,2.7,2.7,2.7c0.7,0,1.2-0.2,1.7-0.5l0.1,0.2c-0.5,0.3-1.1,0.5-1.8,0.5C64.4,550.2,63.1,548.8,63.1,547.2z M66.9,547
			c0-0.5-0.3-0.8-0.8-0.8c-0.6,0-1.1,0.5-1.1,1.2c0,0.5,0.3,0.8,0.8,0.8C66.3,548.2,66.9,547.6,66.9,547z"/>
		<path class="st0" d="M69.8,549.7l0.2-0.4c0.4,0.3,0.8,0.4,1.3,0.4c0.8,0,1.3-0.4,1.3-1.2v-0.4c-0.3,0.4-0.7,0.7-1.4,0.7
			c-0.8,0-1.6-0.6-1.6-1.6v0c0-1,0.8-1.6,1.6-1.6c0.6,0,1.1,0.3,1.4,0.7v-0.6h0.5v2.9c0,0.5-0.2,0.9-0.4,1.2
			c-0.3,0.3-0.8,0.5-1.3,0.5C70.8,550.2,70.3,550,69.8,549.7z M72.7,547.2L72.7,547.2c0-0.7-0.6-1.2-1.3-1.2s-1.2,0.5-1.2,1.2v0
			c0,0.7,0.6,1.2,1.2,1.2C72.1,548.4,72.7,547.9,72.7,547.2z"/>
		<path class="st0" d="M74,548.6l0.3-0.4c0.4,0.3,0.8,0.4,1.2,0.4c0.4,0,0.7-0.2,0.7-0.5v0c0-0.3-0.4-0.5-0.9-0.6
			c-0.5-0.2-1.1-0.3-1.1-1v0c0-0.6,0.5-1,1.2-1c0.4,0,0.9,0.1,1.2,0.4l-0.2,0.4c-0.3-0.2-0.7-0.3-1-0.3c-0.4,0-0.7,0.2-0.7,0.5v0
			c0,0.3,0.4,0.5,0.9,0.6c0.5,0.2,1.1,0.4,1.1,1v0c0,0.7-0.5,1-1.2,1C75,549.1,74.4,549,74,548.6z"/>
		<path class="st0" d="M77.7,544.2h0.5v3.4l1.9-1.9h0.6l-1.5,1.5l1.5,2h-0.6l-1.2-1.6l-0.7,0.7v0.9h-0.5V544.2z"/>
		<path class="st0" d="M81.4,548.4H82v0.7h-0.6V548.4z"/>
		<path class="st0" d="M82.8,547.4L82.8,547.4c0-1,0.8-1.8,1.8-1.8c0.7,0,1.1,0.3,1.4,0.6l-0.3,0.4c-0.3-0.3-0.6-0.5-1.1-0.5
			c-0.7,0-1.2,0.6-1.2,1.3v0c0,0.7,0.5,1.3,1.3,1.3c0.4,0,0.8-0.2,1.1-0.5l0.3,0.3c-0.3,0.4-0.8,0.7-1.4,0.7
			C83.5,549.2,82.8,548.3,82.8,547.4z"/>
		<path class="st0" d="M86.5,547.4L86.5,547.4c0-1,0.8-1.8,1.8-1.8c1,0,1.8,0.8,1.8,1.8v0c0,1-0.8,1.8-1.8,1.8
			C87.2,549.2,86.5,548.3,86.5,547.4z M89.6,547.4L89.6,547.4c0-0.8-0.6-1.4-1.3-1.4c-0.8,0-1.3,0.6-1.3,1.3v0
			c0,0.7,0.5,1.3,1.3,1.3C89,548.7,89.6,548.1,89.6,547.4z"/>
		<path class="st0" d="M91,545.6h0.5v0.6c0.2-0.3,0.5-0.7,1.1-0.7c0.6,0,0.9,0.3,1.1,0.7c0.2-0.4,0.6-0.7,1.2-0.7
			c0.8,0,1.3,0.5,1.3,1.4v2.1h-0.5v-2c0-0.7-0.3-1-0.9-1c-0.5,0-1,0.4-1,1.1v2h-0.5v-2c0-0.6-0.3-1-0.9-1c-0.5,0-1,0.5-1,1.1v2H91
			V545.6z"/>
		<path class="st0" d="M98.8,549.1h-0.6v-0.4c0-0.4,0.1-0.9,0.3-1.3h0.3c-0.1,0.4-0.2,0.7-0.2,1h0.3V549.1z"/>
		<path class="st0" d="M99.5,548.7l1.7-1.5c0.7-0.6,1-1,1-1.5c0-0.5-0.4-0.9-0.9-0.9c-0.5,0-0.9,0.3-1.3,0.8l-0.4-0.3
			c0.4-0.6,0.9-1,1.7-1c0.8,0,1.5,0.6,1.5,1.3v0c0,0.7-0.4,1.1-1.2,1.8l-1.3,1.1h2.5v0.5h-3.3V548.7z"/>
		<path class="st0" d="M103.6,546.8L103.6,546.8c0-1.3,0.8-2.4,2-2.4s2,1.1,2,2.4v0c0,1.3-0.8,2.4-2,2.4
			C104.4,549.2,103.6,548.1,103.6,546.8z M107,546.8L107,546.8c0-1-0.6-2-1.4-2c-0.9,0-1.4,0.9-1.4,1.9v0c0,1,0.6,1.9,1.4,1.9
			S107,547.8,107,546.8z"/>
		<path class="st0" d="M108.2,548.7l1.7-1.5c0.7-0.6,1-1,1-1.5c0-0.5-0.4-0.9-0.9-0.9c-0.5,0-0.9,0.3-1.3,0.8l-0.4-0.3
			c0.4-0.6,0.9-1,1.7-1c0.8,0,1.5,0.6,1.5,1.3v0c0,0.7-0.4,1.1-1.2,1.8l-1.3,1.1h2.5v0.5h-3.3V548.7z"/>
		<path class="st0" d="M112.3,548.7l1.7-1.5c0.7-0.6,1-1,1-1.5c0-0.5-0.4-0.9-0.9-0.9c-0.5,0-0.9,0.3-1.3,0.8l-0.4-0.3
			c0.4-0.6,0.9-1,1.7-1c0.8,0,1.5,0.6,1.5,1.3v0c0,0.7-0.4,1.1-1.2,1.8l-1.3,1.1h2.5v0.5h-3.3V548.7z"/>
		<path class="st0" d="M120.9,549.1h-1.2c-0.1,0.7-0.6,1.1-1.5,1.2v-0.5c0.7,0,1-0.4,1-1.2v-2.7h0.5v2.7h1.2V549.1z"/>
		<path class="st0" d="M122.4,545.8v2c0,0.8-0.4,1.3-1.1,1.3h-0.6v-0.5h0.5c0.3,0,0.5-0.1,0.6-0.3c0.1-0.1,0.1-0.4,0.1-0.7v-1.8
			H122.4z M122.4,550.2h-0.5v-0.6h0.5V550.2z"/>
		<path class="st0" d="M126.5,549.1h-1c-0.1,0.7-0.6,1.1-1.5,1.2v-0.5h0.1c0.5,0,0.8-0.2,0.9-0.7h-0.8c-0.4,0-0.7-0.1-1-0.5
			c-0.3-0.3-0.4-0.7-0.4-1.2c0-0.5,0.1-0.8,0.4-1.2c0.3-0.3,0.6-0.5,1-0.5c0.8,0,1.3,0.5,1.3,1.4v1.3h0.9V549.1z M125.1,548.6v-1.5
			c0-0.2-0.1-0.4-0.2-0.5c-0.1-0.2-0.3-0.3-0.6-0.3c-0.3,0-0.5,0.1-0.7,0.4c-0.1,0.2-0.2,0.5-0.2,0.7c0,0.3,0.1,0.5,0.2,0.8
			c0.2,0.3,0.4,0.4,0.7,0.4L125.1,548.6z"/>
		<path class="st0" d="M128.9,549.1h-2.5v-0.5h0.5c0.3,0,0.5-0.1,0.6-0.3c0.1-0.1,0.1-0.4,0.1-0.7v-1.8h0.5v2c0,0.3,0,0.6-0.1,0.8
			h0.9V549.1z M127.1,545.3h-0.5v-0.6h0.5V545.3z M128.1,545.3h-0.5v-0.6h0.5V545.3z"/>
		<path class="st0" d="M133.5,548.4v0.7h-5v-0.5h4.3c0-0.1,0-0.2,0-0.3c0-0.5-0.1-1-0.4-1.3c-0.3-0.4-0.8-0.6-1.4-0.6h-1.5
			c0.3-0.5,0.6-1.1,1.1-2h0.6l-0.8,1.5h0.6c0.7,0,1.3,0.2,1.7,0.7C133.3,547,133.5,547.6,133.5,548.4z"/>
		<path class="st0" d="M135.4,543.4l-0.3,0c0-0.2-0.1-0.2-0.3-0.2c-0.2,0-0.3,0.1-0.3,0.4c0,0.1,0,0.2,0.1,0.3h0.8v0.3H134v-0.3h0.3
			c0-0.1-0.1-0.2-0.1-0.3c0-0.4,0.2-0.6,0.6-0.6C135.1,543,135.3,543.1,135.4,543.4z M134.9,549.1h-0.5v-4.6h0.5V549.1z"/>
		<path class="st0" d="M137.4,547.7h-0.6v-0.7h0.6V547.7z M137.4,549.1h-0.6v-0.7h0.6V549.1z"/>
		<path class="st0" d="M140.8,549.1h-1.2c-0.1,0.7-0.6,1.1-1.5,1.2v-0.5c0.7,0,1-0.4,1-1.2v-2.7h0.5v2.7h1.2V549.1z"/>
		<path class="st0" d="M143.1,549.1h-2.5v-0.5h0.5c0.3,0,0.5-0.1,0.6-0.3c0.1-0.1,0.1-0.4,0.1-0.7v-1.8h0.5v2c0,0.3,0,0.6-0.1,0.8
			h0.9V549.1z M141.3,550.2h-0.5v-0.6h0.5V550.2z M142.3,550.2h-0.5v-0.6h0.5V550.2z"/>
		<path class="st0" d="M149.7,549.1h-6.8v-0.5h0.7c0.5,0,0.8-0.4,0.8-1.1v-1.3h0.5v1.2c0,0.1,0,0.1,0,0.1c0.5-1,1.4-1.7,2.2-1.7
			c1.1,0,1.7,0.8,1.7,2.4v0.3h0.9V549.1z M148.2,548.6c0-0.2,0-0.3,0-0.5c0-1.1-0.5-1.9-1.2-1.9c-0.9,0-2,1.1-2.3,2.3H148.2z
			 M147.2,545.3h-0.5v-0.6h0.5V545.3z"/>
		<path class="st0" d="M155.3,549.1h-5.7v-0.5h4.3c0-0.1,0-0.2,0-0.3c0-1.2-0.6-1.9-1.8-1.9c-0.6,0-1.1,0.2-1.3,0.7
			c-0.1-0.1-0.2-0.2-0.4-0.4c0.4-0.5,1-0.8,1.8-0.8c1.4,0,2.4,0.9,2.4,2.4v0.2h0.8V549.1z"/>
		<path class="st0" d="M157.6,549.1h-2.5v-0.5h0.5c0.3,0,0.5-0.1,0.6-0.3c0.1-0.1,0.1-0.4,0.1-0.7v-1.8h0.5v2c0,0.3,0,0.6-0.1,0.8
			h0.9V549.1z M155.8,545.3h-0.5v-0.6h0.5V545.3z M156.8,545.3h-0.5v-0.6h0.5V545.3z"/>
		<path class="st0" d="M159.1,544.5v3.4c0,0.8-0.3,1.3-1,1.3h-0.6v-0.5h0.5c0.3,0,0.5-0.1,0.6-0.3c0.1-0.1,0.1-0.4,0.1-0.7v-3.1
			H159.1z"/>
		<path class="st0" d="M160.6,549.1h-0.5v-4.6h0.5V549.1z"/>
		<path class="st0" d="M166.9,549.1h-0.2c-0.8,0-1.5-0.8-1.6-1.7h-0.9c-0.7,0-1.2,0.5-1.2,1.2c0,0.7,0.4,1.1,1.2,1.1h0.7v0.5h-0.7
			c-1,0-1.8-0.7-1.8-1.7c0-0.8,0.5-1.5,1.3-1.7c0.1,0,0.5,0,1,0h0.3c-0.1-0.9-0.5-1.4-1.2-1.4c-0.2,0-0.3,0-0.4,0.1v-0.4
			c0.1,0,0.3-0.1,0.5-0.1c1,0,1.6,0.6,1.6,1.9c0,0.9,0.5,1.6,1,1.6h0.3V549.1z M164.5,544.5H164v-0.6h0.5V544.5z"/>
		<path class="st0" d="M168.5,545.8v2c0,0.8-0.4,1.3-1.1,1.3h-0.6v-0.5h0.5c0.3,0,0.5-0.1,0.6-0.3c0.1-0.1,0.1-0.4,0.1-0.7v-1.8
			H168.5z M167.6,550.2h-0.5v-0.6h0.5V550.2z M168.5,550.2H168v-0.6h0.5V550.2z"/>
		<path class="st0" d="M170.7,545.8v2.6c0,1.2-0.5,1.7-1.5,1.8v-0.5c0.7,0,1-0.4,1-1.2v-2.7H170.7z"/>
		<path class="st0" d="M173.3,549.1h-0.6c-0.3,0-0.5-0.1-0.7-0.3c-0.2-0.2-0.3-0.5-0.3-0.9v-3.5h0.5v3.2c0,0.3,0.1,0.6,0.1,0.7
			c0.1,0.1,0.2,0.2,0.4,0.2c0.1,0,0.1,0,0.5,0V549.1z"/>
		<path class="st0" d="M174.8,545.8v2c0,0.8-0.4,1.3-1.1,1.3h-0.6v-0.5h0.5c0.3,0,0.5-0.1,0.6-0.3c0.1-0.1,0.1-0.4,0.1-0.7v-1.8
			H174.8z M173.9,545.3h-0.5v-0.6h0.5V545.3z M174.8,545.3h-0.5v-0.6h0.5V545.3z"/>
		<path class="st0" d="M177.1,549.1h-0.6v-0.4c0-0.4,0.1-0.9,0.3-1.3h0.3c-0.1,0.4-0.2,0.7-0.2,1h0.3V549.1z"/>
		<path class="st0" d="M178.2,544.4h1.8c1.1,0,1.8,0.6,1.8,1.5v0c0,1-0.8,1.5-1.8,1.5h-1.1v1.7h-0.5V544.4z M179.9,546.9
			c0.8,0,1.3-0.4,1.3-1v0c0-0.7-0.5-1-1.3-1h-1.2v2.1H179.9z"/>
		<path class="st0" d="M182.7,544.4h0.5l1.7,2.6l1.7-2.6h0.5v4.7h-0.5v-3.8l-1.7,2.5h0l-1.7-2.5v3.8h-0.5V544.4z"/>
		<path class="st0" d="M188.2,546.8h1.9v0.5h-1.9V546.8z"/>
		<path class="st0" d="M191.2,544.4h2c0.5,0,1,0.2,1.2,0.4c0.2,0.2,0.3,0.4,0.3,0.8v0c0,0.6-0.4,0.9-0.7,1.1c0.6,0.2,1,0.5,1,1.1v0
			c0,0.8-0.7,1.3-1.7,1.3h-2.1V544.4z M193.1,546.5c0.6,0,1.1-0.3,1.1-0.8v0c0-0.5-0.4-0.8-1-0.8h-1.4v1.6H193.1z M193.3,548.6
			c0.7,0,1.2-0.3,1.2-0.8v0c0-0.5-0.4-0.8-1.2-0.8h-1.5v1.7H193.3z"/>
		<path class="st0" d="M196,544.4h0.5v2.1h2.7v-2.1h0.5v4.7h-0.5V547h-2.7v2.1H196V544.4z"/>
		<path class="st0" d="M200.9,546.8h1.9v0.5h-1.9V546.8z"/>
		<path class="st0" d="M203.9,544.4h1.8c1.1,0,1.8,0.6,1.8,1.5v0c0,1-0.8,1.5-1.8,1.5h-1.1v1.7h-0.5V544.4z M205.5,546.9
			c0.8,0,1.3-0.4,1.3-1v0c0-0.7-0.5-1-1.3-1h-1.2v2.1H205.5z"/>
		<path class="st0" d="M208.1,546.8L208.1,546.8c0-1.3,1-2.4,2.4-2.4c0.8,0,1.4,0.3,1.8,0.7l-0.4,0.4c-0.4-0.4-0.8-0.6-1.5-0.6
			c-1,0-1.8,0.8-1.8,1.9v0c0,1.1,0.8,1.9,1.8,1.9c0.6,0,1.1-0.2,1.5-0.7l0.3,0.3c-0.5,0.5-1,0.8-1.9,0.8
			C209.1,549.2,208.1,548.1,208.1,546.8z"/>
		<path class="st0" d="M213.3,544.4h3.4v0.5h-2.8v1.7h2.5v0.5h-2.5v2h-0.5V544.4z"/>
		<path class="st0" d="M217.4,546.8h1.9v0.5h-1.9V546.8z"/>
		<path class="st0" d="M220,548.7l1.7-1.5c0.7-0.6,1-1,1-1.5c0-0.5-0.4-0.9-0.9-0.9c-0.5,0-0.9,0.3-1.3,0.8l-0.4-0.3
			c0.4-0.6,0.9-1,1.7-1c0.8,0,1.5,0.6,1.5,1.3v0c0,0.7-0.4,1.1-1.2,1.8l-1.3,1.1h2.5v0.5H220V548.7z"/>
		<path class="st0" d="M224.1,548.7l1.7-1.5c0.7-0.6,1-1,1-1.5c0-0.5-0.4-0.9-0.9-0.9c-0.5,0-0.9,0.3-1.3,0.8l-0.4-0.3
			c0.4-0.6,0.9-1,1.7-1c0.8,0,1.5,0.6,1.5,1.3v0c0,0.7-0.4,1.1-1.2,1.8l-1.3,1.1h2.5v0.5h-3.3V548.7z"/>
		<path class="st0" d="M228.2,546.8h1.9v0.5h-1.9V546.8z"/>
		<path class="st0" d="M230.9,546.8L230.9,546.8c0-1.3,0.8-2.4,2-2.4s2,1.1,2,2.4v0c0,1.3-0.8,2.4-2,2.4
			C231.7,549.2,230.9,548.1,230.9,546.8z M234.3,546.8L234.3,546.8c0-1-0.6-2-1.4-2c-0.9,0-1.4,0.9-1.4,1.9v0c0,1,0.6,1.9,1.4,1.9
			S234.3,547.8,234.3,546.8z"/>
		<path class="st0" d="M235.7,546.8L235.7,546.8c0-1.3,0.8-2.4,2-2.4s2,1.1,2,2.4v0c0,1.3-0.8,2.4-2,2.4
			C236.4,549.2,235.7,548.1,235.7,546.8z M239.1,546.8L239.1,546.8c0-1-0.6-2-1.4-2c-0.9,0-1.4,0.9-1.4,1.9v0c0,1,0.6,1.9,1.4,1.9
			S239.1,547.8,239.1,546.8z"/>
		<path class="st0" d="M240.5,546.8L240.5,546.8c0-1.3,0.8-2.4,2-2.4s2,1.1,2,2.4v0c0,1.3-0.8,2.4-2,2.4
			C241.2,549.2,240.5,548.1,240.5,546.8z M243.9,546.8L243.9,546.8c0-1-0.6-2-1.4-2c-0.9,0-1.4,0.9-1.4,1.9v0c0,1,0.6,1.9,1.4,1.9
			S243.9,547.8,243.9,546.8z"/>
		<path class="st0" d="M245.3,546.8L245.3,546.8c0-1.3,0.8-2.4,2-2.4s2,1.1,2,2.4v0c0,1.3-0.8,2.4-2,2.4
			C246,549.2,245.3,548.1,245.3,546.8z M248.7,546.8L248.7,546.8c0-1-0.6-2-1.4-2c-0.9,0-1.4,0.9-1.4,1.9v0c0,1,0.6,1.9,1.4,1.9
			S248.7,547.8,248.7,546.8z"/>
		<path class="st0" d="M250.2,548.6l0.3-0.4c0.4,0.3,0.7,0.5,1.2,0.5c0.8,0,1.4-0.9,1.4-2.1c-0.3,0.4-0.7,0.7-1.3,0.7
			c-1,0-1.6-0.6-1.6-1.5v0c0-0.9,0.7-1.6,1.7-1.6c0.5,0,0.9,0.2,1.2,0.5c0.4,0.4,0.6,0.9,0.6,1.8v0c0,1.5-0.8,2.5-1.9,2.5
			C251,549.2,250.5,548.9,250.2,548.6z M252.9,545.9L252.9,545.9c0-0.6-0.5-1.1-1.2-1.1s-1.1,0.5-1.1,1.1v0c0,0.6,0.5,1,1.2,1
			C252.5,546.9,252.9,546.4,252.9,545.9z"/>
		<path class="st0" d="M256.1,547.7h-0.6v-0.7h0.6V547.7z M256.1,549.1h-0.6v-0.7h0.6V549.1z"/>
		<path class="st0" d="M261.1,549.1H261c-0.8,0-1.5-0.8-1.6-1.7h-0.9c-0.7,0-1.2,0.5-1.2,1.2c0,0.7,0.4,1.1,1.2,1.1h0.7v0.5h-0.7
			c-1,0-1.7-0.7-1.7-1.7c0-0.8,0.5-1.5,1.3-1.7c0.1,0,0.5,0,1,0h0.3c-0.1-0.9-0.5-1.4-1.2-1.4c-0.2,0-0.3,0-0.4,0.1v-0.4
			c0.1,0,0.3-0.1,0.5-0.1c1,0,1.6,0.6,1.6,1.9c0,0.9,0.5,1.6,1,1.6h0.3V549.1z M258.7,548.9h-0.5v-0.6h0.5V548.9z"/>
		<path class="st0" d="M263.5,549.1H261v-0.5h0.5c0.3,0,0.5-0.1,0.6-0.3c0.1-0.1,0.1-0.4,0.1-0.7v-1.8h0.5v2c0,0.3,0,0.6-0.1,0.8
			h0.9V549.1z M261.8,545.3h-0.5v-0.6h0.5V545.3z M262.7,545.3h-0.5v-0.6h0.5V545.3z"/>
		<path class="st0" d="M265.8,549.1h-2.5v-0.5h0.5c0.3,0,0.5-0.1,0.6-0.3c0.1-0.1,0.1-0.4,0.1-0.7v-1.8h0.5v2c0,0.3,0,0.6-0.1,0.8
			h0.9V549.1z M265.1,545.3h-0.5v-0.6h0.5V545.3z"/>
		<path class="st0" d="M270.3,549.1h-1.1c-0.3,0.4-0.7,0.6-1.2,0.6c-0.6,0-1-0.2-1.2-0.6h-1.1v-0.5h0.8c0-0.1-0.1-0.3-0.1-0.5
			c0-0.5,0.1-0.9,0.4-1.2c0.3-0.3,0.6-0.5,1.1-0.5c0.5,0,0.8,0.2,1.1,0.5c0.2,0.3,0.4,0.7,0.4,1.2c0,0.2,0,0.3-0.1,0.5h0.9V549.1z
			 M268.9,548c0-0.3-0.1-0.6-0.2-0.8c-0.1-0.2-0.4-0.3-0.7-0.3c-0.3,0-0.6,0.1-0.7,0.4c-0.1,0.2-0.2,0.5-0.2,0.8
			c0,0.3,0.1,0.6,0.2,0.8c0.2,0.2,0.4,0.3,0.7,0.3C268.6,549.3,268.9,548.8,268.9,548z"/>
		<path class="st0" d="M271.8,544.5v3.4c0,0.8-0.3,1.3-1,1.3h-0.6v-0.5h0.5c0.3,0,0.5-0.1,0.6-0.3c0.1-0.1,0.1-0.4,0.1-0.7v-3.1
			H271.8z"/>
		<path class="st0" d="M273.3,549.1h-0.5v-4.6h0.5V549.1z"/>
		<path class="st0" d="M277.8,549.1h-1.2c-0.2,0.7-0.7,1.1-1.5,1.2v-0.5c0.7,0,1-0.4,1-1.2v-2.7h0.5v2.7h1.2V549.1z M276.7,545.3
			h-0.5v-0.6h0.5V545.3z"/>
		<path class="st0" d="M281.7,548.1c0,0.5-0.1,0.8-0.4,1.1c-0.3,0.3-0.6,0.5-1.1,0.5c-0.6,0-1-0.2-1.2-0.6h-1.4v-0.5h1.2
			c0-0.1-0.1-0.3-0.1-0.5c0-0.5,0.1-0.9,0.4-1.2c0.3-0.3,0.6-0.5,1.1-0.5c0.5,0,0.8,0.2,1.1,0.5
			C281.6,547.2,281.7,547.6,281.7,548.1z M281.1,548c0-0.3-0.1-0.6-0.2-0.8c-0.2-0.2-0.4-0.3-0.7-0.3c-0.3,0-0.6,0.1-0.7,0.4
			c-0.1,0.2-0.2,0.5-0.2,0.8c0,0.3,0.1,0.6,0.2,0.8c0.2,0.2,0.4,0.3,0.7,0.3C280.8,549.3,281.1,548.8,281.1,548z"/>
		<path class="st0" d="M283.7,545.8v2.6c0,1.2-0.5,1.7-1.5,1.8v-0.5c0.7,0,1-0.4,1-1.2v-2.7H283.7z"/>
	</g>
</g>
</svg>
